<?xml version="1.0"?>
<svg version="1.1" xmlns="http://www.w3.org/2000/svg" width="51px" height="36px" style=""><path fill="#0db838" d="M8.1796875,24.421875q0,1.546875-1.11328125,2.4375t-3.09765625,0.890625q-1.828125,0-3.234375-0.6875l0-2.25q1.15625,0.515625,1.95703125,0.7265625t1.46484375,0.2109375q0.796875,0,1.22265625-0.3046875t0.42578125-0.90625q0-0.3359375-0.1875-0.59765625t-0.55078125-0.50390625t-1.48046875-0.7734375q-1.046875-0.4921875-1.5703125-0.9453125t-0.8359375-1.0546875t-0.3125-1.40625q0-1.515625,1.02734375-2.3828125t2.83984375-0.8671875q0.890625,0,1.69921875,0.2109375t1.69140625,0.59375l-0.78125,1.8828125q-0.9140625-0.375-1.51171875-0.5234375t-1.17578125-0.1484375q-0.6875,0-1.0546875,0.3203125t-0.3671875,0.8359375q0,0.3203125,0.1484375,0.55859375t0.47265625,0.4609375t1.53515625,0.80078125q1.6015625,0.765625,2.1953125,1.53515625t0.59375,1.88671875z M13.732578125,27.59375l-2.3828125,0l0-11.421875l6.546875,0l0,1.984375l-4.1640625,0l0,2.9453125l3.875,0l0,1.9765625l-3.875,0l0,4.515625z"/><path fill="#" d=""/></svg>
